<svg width="32" height="32" viewBox="0 0 40 40" fill="none" xmlns="http://www.w3.org/2000/svg"><rect width="40" height="40" rx="8" fill="#2563eb"/><path d="M8 32V8h6c3.5 0 6 .8 7.8 2.3C23.5 11.8 24.4 14 24.4 17s-.9 5.2-2.6 6.7C20 25.2 17.5 26 14 26h-3v6H8zm3-9h3c2.2 0 3.7-.5 4.7-1.4 1-.9 1.5-2.3 1.5-4 0-1.8-.5-3.1-1.5-4-1-.9-2.5-1.4-4.7-1.4h-3V23z" fill="white"/><path d="M27 32c-1.5 0-2.7-.5-3.7-1.5-1-1-1.5-2.4-1.5-4s.5-3 1.5-4 2.2-1.5 3.7-1.5c1 0 1.8.2 2.5.7V18h3.5v12c0 1.5-.5 2.8-1.6 3.7-1.1.9-2.5 1.3-4.4 1.3-1.5 0-2.8-.3-3.8-.9l1-2.8c.8.5 1.6.7 2.7.7.9 0 1.5-.2 2-.5.5-.4.6-.9.6-1.5v-.7c-.7.5-1.5.7-2.5.7zm1-2.8c.6 0 1.1-.2 1.5-.5V25c-.4-.3-.9-.5-1.5-.5-.7 0-1.3.3-1.8.8-.4.5-.7 1.3-.7 2.2 0 .9.3 1.6.7 2.1.5.4 1.1.6 1.8.6z" fill="white"/></svg>
